<!DOCTYPE svg PUBLIC "-//W3C//DTD SVG 20010904//EN" "http://www.w3.org/TR/2001/REC-SVG-20010904/DTD/svg10.dtd">
<svg version="1.0" xmlns="http://www.w3.org/2000/svg" width="501px" height="485px" viewBox="0 0 5010 4850" preserveAspectRatio="xMidYMid meet">
<g id="layer101" fill="#93664c" stroke="none">
 <path d="M2240 4819 c-415 -54 -745 -173 -1075 -387 -529 -343 -904 -865 -1064 -1485 -47 -181 -71 -384 -71 -597 0 -414 89 -779 275 -1138 227 -436 558 -780 985 -1026 125 -72 344 -170 403 -181 l37 -7 1 1093 c0 602 0 1267 0 1479 l-1 385 -83 80 c-316 307 -554 525 -571 525 -15 0 -16 -47 -18 -522 -3 -644 3 -1970 9 -1981 9 -15 43 16 211 192 l172 180 0 128 c0 70 -4 134 -9 142 -7 12 -25 -2 -81 -62 -40 -42 -76 -77 -81 -77 -4 0 -8 345 -8 766 0 452 3 764 9 762 5 -2 60 -51 124 -110 l114 -108 1 -1280 c1 -704 -1 -1280 -5 -1280 -16 0 -177 90 -261 146 -336 225 -617 549 -789 909 -97 204 -155 386 -196 619 -32 176 -31 545 0 726 100 565 384 1055 814 1401 337 271 683 420 1138 490 127 20 488 17 620 -5 520 -85 933 -296 1291 -656 685 -692 849 -1744 407 -2624 -166 -331 -460 -658 -778 -867 -99 -65 -231 -139 -249 -139 -9 0 -11 283 -9 1279 l3 1278 104 99 c57 54 112 105 122 112 18 13 19 -9 19 -755 l0 -767 -73 72 c-40 39 -78 72 -85 72 -9 0 -12 -35 -12 -137 l1 -138 171 -180 c162 -171 195 -202 203 -193 3 3 9 2443 6 2491 0 9 -7 17 -14 17 -12 0 -575 -520 -634 -586 l-23 -25 0 -1470 c0 -1279 2 -1470 15 -1475 17 -7 100 21 215 73 723 325 1248 969 1420 1743 71 321 73 700 4 1038 -102 503 -401 1017 -787 1350 -131 112 -219 178 -373 275 -66 41 -271 141 -374 182 -187 74 -388 123 -633 155 -91 12 -443 11 -537 -1z"/>
 <path d="M2230 2553 c-151 -158 -293 -305 -315 -327 -22 -22 -54 -57 -72 -79 l-33 -39 0 -133 c0 -79 4 -136 10 -140 6 -3 72 58 147 137 76 79 181 187 233 240 52 54 142 147 200 208 57 60 108 110 112 110 8 0 61 -52 203 -201 317 -334 480 -499 492 -499 10 0 13 30 13 136 l0 137 -36 41 c-20 22 -79 86 -133 141 -356 371 -536 555 -540 555 -3 0 -130 -130 -281 -287z"/>
 </g>

</svg>